<svg xmlns="http://www.w3.org/2000/svg" xmlns:xlink="http://www.w3.org/1999/xlink" style="margin:auto;background:#fafbfd;display:block;z-index:1;position:relative" width="1084" height="322" preserveAspectRatio="xMidYMid" viewBox="0 0 1084 322">
<defs>
  <pattern id="pid-img-0.9351122782644762" x="0" y="0" width="673" height="673" patternUnits="userSpaceOnUse">
    <image xlink:href="blob:https://loading.io/754ae7cf-ea06-4e66-86aa-4fd347adbfaf" x="0" y="0" width="673" height="673"></image>
  </pattern>
</defs>
<g id="patroot">
  <g transform="scale(2.6300000000000003)"><defs>
  <filter id="pat-0.40188099454922255" x="-100%" y="-100%" width="300%" height="300%" color-interpolation-filters="sRGB">
    <feGaussianBlur in="SourceGraphic" stdDeviation="10"></feGaussianBlur>
    <feComponentTransfer result="cutoff">
      <feFuncA type="linear" slope="60" intercept="-40"></feFuncA>
    </feComponentTransfer>
  </filter>
</defs><g filter="url(#f)"><g style="isolation:isolate" filter="url(#pat-0.40188099454922255)">
<rect x="0" y="0" width="256" height="256" fill="none"></rect><g>
  <circle cx="-174.83857777532808" cy="201.43711479244573" r="41.80558903641857" fill="undefined"></circle> <circle cx="81.16142222467192" cy="201.43711479244573" r="41.80558903641857" fill="undefined"></circle> <circle cx="337.1614222246719" cy="201.43711479244573" r="41.80558903641857" fill="undefined"></circle> <circle cx="-174.83857777532808" cy="457.43711479244575" r="41.80558903641857" fill="undefined"></circle> <circle cx="81.16142222467192" cy="457.43711479244575" r="41.80558903641857" fill="undefined"></circle> <circle cx="337.1614222246719" cy="457.43711479244575" r="41.80558903641857" fill="undefined"></circle> <circle cx="-174.83857777532808" cy="713.4371147924458" r="41.80558903641857" fill="undefined"></circle> <circle cx="81.16142222467192" cy="713.4371147924458" r="41.80558903641857" fill="undefined"></circle> <circle cx="337.1614222246719" cy="713.4371147924458" r="41.80558903641857" fill="undefined"></circle> <circle cx="-26.109139957508063" cy="-3.0709592499931944" r="19.405272679127833" fill="undefined"></circle> <circle cx="229.89086004249194" cy="-3.0709592499931944" r="19.405272679127833" fill="undefined"></circle> <circle cx="485.8908600424919" cy="-3.0709592499931944" r="19.405272679127833" fill="undefined"></circle> <circle cx="-26.109139957508063" cy="252.9290407500068" r="19.405272679127833" fill="undefined"></circle> <circle cx="229.89086004249194" cy="252.9290407500068" r="19.405272679127833" fill="undefined"></circle> <circle cx="485.8908600424919" cy="252.9290407500068" r="19.405272679127833" fill="undefined"></circle> <circle cx="-26.109139957508063" cy="508.92904075000683" r="19.405272679127833" fill="undefined"></circle> <circle cx="229.89086004249194" cy="508.92904075000683" r="19.405272679127833" fill="undefined"></circle> <circle cx="485.8908600424919" cy="508.92904075000683" r="19.405272679127833" fill="undefined"></circle> <circle cx="-26.109139957508063" cy="764.9290407500068" r="19.405272679127833" fill="undefined"></circle> <circle cx="229.89086004249194" cy="764.9290407500068" r="19.405272679127833" fill="undefined"></circle> <circle cx="485.8908600424919" cy="764.9290407500068" r="19.405272679127833" fill="undefined"></circle> <circle cx="-240.2609976826027" cy="73.89640543492052" r="9.128986379832327" fill="undefined"></circle> <circle cx="15.739002317397308" cy="73.89640543492052" r="9.128986379832327" fill="undefined"></circle> <circle cx="271.7390023173973" cy="73.89640543492052" r="9.128986379832327" fill="undefined"></circle> <circle cx="-240.2609976826027" cy="329.89640543492055" r="9.128986379832327" fill="undefined"></circle> <circle cx="15.739002317397308" cy="329.89640543492055" r="9.128986379832327" fill="undefined"></circle> <circle cx="271.7390023173973" cy="329.89640543492055" r="9.128986379832327" fill="undefined"></circle> <circle cx="-240.2609976826027" cy="585.8964054349206" r="9.128986379832327" fill="undefined"></circle> <circle cx="15.739002317397308" cy="585.8964054349206" r="9.128986379832327" fill="undefined"></circle> <circle cx="271.7390023173973" cy="585.8964054349206" r="9.128986379832327" fill="undefined"></circle> <circle cx="-135.75247763893003" cy="209.84400872008777" r="11.506979865223755" fill="undefined"></circle> <circle cx="120.24752236106997" cy="209.84400872008777" r="11.506979865223755" fill="undefined"></circle> <circle cx="376.24752236106997" cy="209.84400872008777" r="11.506979865223755" fill="undefined"></circle> <circle cx="-135.75247763893003" cy="465.8440087200878" r="11.506979865223755" fill="undefined"></circle> <circle cx="120.24752236106997" cy="465.8440087200878" r="11.506979865223755" fill="undefined"></circle> <circle cx="376.24752236106997" cy="465.8440087200878" r="11.506979865223755" fill="undefined"></circle> <circle cx="-135.75247763893003" cy="721.8440087200878" r="11.506979865223755" fill="undefined"></circle> <circle cx="120.24752236106997" cy="721.8440087200878" r="11.506979865223755" fill="undefined"></circle> <circle cx="376.24752236106997" cy="721.8440087200878" r="11.506979865223755" fill="undefined"></circle> <circle cx="-145.13633233212695" cy="163.47508490969776" r="36.646979381324684" fill="undefined"></circle> <circle cx="110.86366766787305" cy="163.47508490969776" r="36.646979381324684" fill="undefined"></circle> <circle cx="366.8636676678731" cy="163.47508490969776" r="36.646979381324684" fill="undefined"></circle> <circle cx="-145.13633233212695" cy="419.4750849096978" r="36.646979381324684" fill="undefined"></circle> <circle cx="110.86366766787305" cy="419.4750849096978" r="36.646979381324684" fill="undefined"></circle> <circle cx="366.8636676678731" cy="419.4750849096978" r="36.646979381324684" fill="undefined"></circle> <circle cx="-145.13633233212695" cy="675.4750849096978" r="36.646979381324684" fill="undefined"></circle> <circle cx="110.86366766787305" cy="675.4750849096978" r="36.646979381324684" fill="undefined"></circle> <circle cx="366.8636676678731" cy="675.4750849096978" r="36.646979381324684" fill="undefined"></circle> <circle cx="-161.01545152327122" cy="163.56002389224594" r="42.26273542210681" fill="undefined"></circle> <circle cx="94.98454847672878" cy="163.56002389224594" r="42.26273542210681" fill="undefined"></circle> <circle cx="350.9845484767288" cy="163.56002389224594" r="42.26273542210681" fill="undefined"></circle> <circle cx="-161.01545152327122" cy="419.5600238922459" r="42.26273542210681" fill="undefined"></circle> <circle cx="94.98454847672878" cy="419.5600238922459" r="42.26273542210681" fill="undefined"></circle> <circle cx="350.9845484767288" cy="419.5600238922459" r="42.26273542210681" fill="undefined"></circle> <circle cx="-161.01545152327122" cy="675.5600238922459" r="42.26273542210681" fill="undefined"></circle> <circle cx="94.98454847672878" cy="675.5600238922459" r="42.26273542210681" fill="undefined"></circle> <circle cx="350.9845484767288" cy="675.5600238922459" r="42.26273542210681" fill="undefined"></circle> <circle cx="-86.6991504136729" cy="89.09531297775405" r="22.76822493313057" fill="undefined"></circle> <circle cx="169.3008495863271" cy="89.09531297775405" r="22.76822493313057" fill="undefined"></circle> <circle cx="425.3008495863271" cy="89.09531297775405" r="22.76822493313057" fill="undefined"></circle> <circle cx="-86.6991504136729" cy="345.095312977754" r="22.76822493313057" fill="undefined"></circle> <circle cx="169.3008495863271" cy="345.095312977754" r="22.76822493313057" fill="undefined"></circle> <circle cx="425.3008495863271" cy="345.095312977754" r="22.76822493313057" fill="undefined"></circle> <circle cx="-86.6991504136729" cy="601.095312977754" r="22.76822493313057" fill="undefined"></circle> <circle cx="169.3008495863271" cy="601.095312977754" r="22.76822493313057" fill="undefined"></circle> <circle cx="425.3008495863271" cy="601.095312977754" r="22.76822493313057" fill="undefined"></circle> 
  <animateTransform attributeName="transform" type="translate" dur="3.3333333333333335s" repeatCount="indefinite" keyTimes="0;1" values="0 0;0 -256"></animateTransform>
</g><g>
  <circle cx="-59.126434388635545" cy="75.1161527809553" r="25.45699893540973" fill="undefined"></circle> <circle cx="196.87356561136446" cy="75.1161527809553" r="25.45699893540973" fill="undefined"></circle> <circle cx="452.8735656113645" cy="75.1161527809553" r="25.45699893540973" fill="undefined"></circle> <circle cx="-59.126434388635545" cy="331.1161527809553" r="25.45699893540973" fill="undefined"></circle> <circle cx="196.87356561136446" cy="331.1161527809553" r="25.45699893540973" fill="undefined"></circle> <circle cx="452.8735656113645" cy="331.1161527809553" r="25.45699893540973" fill="undefined"></circle> <circle cx="-59.126434388635545" cy="587.1161527809553" r="25.45699893540973" fill="undefined"></circle> <circle cx="196.87356561136446" cy="587.1161527809553" r="25.45699893540973" fill="undefined"></circle> <circle cx="452.8735656113645" cy="587.1161527809553" r="25.45699893540973" fill="undefined"></circle> <circle cx="-115.17652049784249" cy="197.83544321549448" r="25.365121524416672" fill="undefined"></circle> <circle cx="140.8234795021575" cy="197.83544321549448" r="25.365121524416672" fill="undefined"></circle> <circle cx="396.8234795021575" cy="197.83544321549448" r="25.365121524416672" fill="undefined"></circle> <circle cx="-115.17652049784249" cy="453.8354432154945" r="25.365121524416672" fill="undefined"></circle> <circle cx="140.8234795021575" cy="453.8354432154945" r="25.365121524416672" fill="undefined"></circle> <circle cx="396.8234795021575" cy="453.8354432154945" r="25.365121524416672" fill="undefined"></circle> <circle cx="-115.17652049784249" cy="709.8354432154945" r="25.365121524416672" fill="undefined"></circle> <circle cx="140.8234795021575" cy="709.8354432154945" r="25.365121524416672" fill="undefined"></circle> <circle cx="396.8234795021575" cy="709.8354432154945" r="25.365121524416672" fill="undefined"></circle> <circle cx="-167.19801438145745" cy="122.63530195778122" r="29.004297728135096" fill="undefined"></circle> <circle cx="88.80198561854255" cy="122.63530195778122" r="29.004297728135096" fill="undefined"></circle> <circle cx="344.8019856185425" cy="122.63530195778122" r="29.004297728135096" fill="undefined"></circle> <circle cx="-167.19801438145745" cy="378.6353019577812" r="29.004297728135096" fill="undefined"></circle> <circle cx="88.80198561854255" cy="378.6353019577812" r="29.004297728135096" fill="undefined"></circle> <circle cx="344.8019856185425" cy="378.6353019577812" r="29.004297728135096" fill="undefined"></circle> <circle cx="-167.19801438145745" cy="634.6353019577812" r="29.004297728135096" fill="undefined"></circle> <circle cx="88.80198561854255" cy="634.6353019577812" r="29.004297728135096" fill="undefined"></circle> <circle cx="344.8019856185425" cy="634.6353019577812" r="29.004297728135096" fill="undefined"></circle> <circle cx="-51.03273258347207" cy="41.885194045025486" r="36.58225756269027" fill="undefined"></circle> <circle cx="204.96726741652793" cy="41.885194045025486" r="36.58225756269027" fill="undefined"></circle> <circle cx="460.96726741652793" cy="41.885194045025486" r="36.58225756269027" fill="undefined"></circle> <circle cx="-51.03273258347207" cy="297.8851940450255" r="36.58225756269027" fill="undefined"></circle> <circle cx="204.96726741652793" cy="297.8851940450255" r="36.58225756269027" fill="undefined"></circle> <circle cx="460.96726741652793" cy="297.8851940450255" r="36.58225756269027" fill="undefined"></circle> <circle cx="-51.03273258347207" cy="553.8851940450255" r="36.58225756269027" fill="undefined"></circle> <circle cx="204.96726741652793" cy="553.8851940450255" r="36.58225756269027" fill="undefined"></circle> <circle cx="460.96726741652793" cy="553.8851940450255" r="36.58225756269027" fill="undefined"></circle> <circle cx="-67.30716165468755" cy="77.44271448738311" r="24.202814694430735" fill="undefined"></circle> <circle cx="188.69283834531245" cy="77.44271448738311" r="24.202814694430735" fill="undefined"></circle> <circle cx="444.69283834531245" cy="77.44271448738311" r="24.202814694430735" fill="undefined"></circle> <circle cx="-67.30716165468755" cy="333.4427144873831" r="24.202814694430735" fill="undefined"></circle> <circle cx="188.69283834531245" cy="333.4427144873831" r="24.202814694430735" fill="undefined"></circle> <circle cx="444.69283834531245" cy="333.4427144873831" r="24.202814694430735" fill="undefined"></circle> <circle cx="-67.30716165468755" cy="589.4427144873831" r="24.202814694430735" fill="undefined"></circle> <circle cx="188.69283834531245" cy="589.4427144873831" r="24.202814694430735" fill="undefined"></circle> <circle cx="444.69283834531245" cy="589.4427144873831" r="24.202814694430735" fill="undefined"></circle> <circle cx="-240.8583832521747" cy="26.676677380115024" r="26.559292622711684" fill="undefined"></circle> <circle cx="15.14161674782531" cy="26.676677380115024" r="26.559292622711684" fill="undefined"></circle> <circle cx="271.1416167478253" cy="26.676677380115024" r="26.559292622711684" fill="undefined"></circle> <circle cx="-240.8583832521747" cy="282.67667738011505" r="26.559292622711684" fill="undefined"></circle> <circle cx="15.14161674782531" cy="282.67667738011505" r="26.559292622711684" fill="undefined"></circle> <circle cx="271.1416167478253" cy="282.67667738011505" r="26.559292622711684" fill="undefined"></circle> <circle cx="-240.8583832521747" cy="538.676677380115" r="26.559292622711684" fill="undefined"></circle> <circle cx="15.14161674782531" cy="538.676677380115" r="26.559292622711684" fill="undefined"></circle> <circle cx="271.1416167478253" cy="538.676677380115" r="26.559292622711684" fill="undefined"></circle> <circle cx="-31.513807805345806" cy="87.94860320310397" r="16.312224677591765" fill="undefined"></circle> <circle cx="224.4861921946542" cy="87.94860320310397" r="16.312224677591765" fill="undefined"></circle> <circle cx="480.4861921946542" cy="87.94860320310397" r="16.312224677591765" fill="undefined"></circle> <circle cx="-31.513807805345806" cy="343.94860320310397" r="16.312224677591765" fill="undefined"></circle> <circle cx="224.4861921946542" cy="343.94860320310397" r="16.312224677591765" fill="undefined"></circle> <circle cx="480.4861921946542" cy="343.94860320310397" r="16.312224677591765" fill="undefined"></circle> <circle cx="-31.513807805345806" cy="599.948603203104" r="16.312224677591765" fill="undefined"></circle> <circle cx="224.4861921946542" cy="599.948603203104" r="16.312224677591765" fill="undefined"></circle> <circle cx="480.4861921946542" cy="599.948603203104" r="16.312224677591765" fill="undefined"></circle> 
  <animateTransform attributeName="transform" type="translate" dur="1.6666666666666667s" repeatCount="indefinite" keyTimes="0;1" values="0 0;0 -256"></animateTransform>
</g><g>
  <circle cx="-237.2389805208198" cy="-16.41113648015616" r="42.791637909142985" fill="undefined"></circle> <circle cx="18.76101947918019" cy="-16.41113648015616" r="42.791637909142985" fill="undefined"></circle> <circle cx="274.76101947918016" cy="-16.41113648015616" r="42.791637909142985" fill="undefined"></circle> <circle cx="-237.2389805208198" cy="239.58886351984384" r="42.791637909142985" fill="undefined"></circle> <circle cx="18.76101947918019" cy="239.58886351984384" r="42.791637909142985" fill="undefined"></circle> <circle cx="274.76101947918016" cy="239.58886351984384" r="42.791637909142985" fill="undefined"></circle> <circle cx="-237.2389805208198" cy="495.5888635198438" r="42.791637909142985" fill="undefined"></circle> <circle cx="18.76101947918019" cy="495.5888635198438" r="42.791637909142985" fill="undefined"></circle> <circle cx="274.76101947918016" cy="495.5888635198438" r="42.791637909142985" fill="undefined"></circle> <circle cx="-237.2389805208198" cy="751.5888635198438" r="42.791637909142985" fill="undefined"></circle> <circle cx="18.76101947918019" cy="751.5888635198438" r="42.791637909142985" fill="undefined"></circle> <circle cx="274.76101947918016" cy="751.5888635198438" r="42.791637909142985" fill="undefined"></circle> <circle cx="-17.19118614271966" cy="232.11384097393326" r="12.862533098631266" fill="undefined"></circle> <circle cx="238.80881385728034" cy="232.11384097393326" r="12.862533098631266" fill="undefined"></circle> <circle cx="494.80881385728037" cy="232.11384097393326" r="12.862533098631266" fill="undefined"></circle> <circle cx="-17.19118614271966" cy="488.1138409739333" r="12.862533098631266" fill="undefined"></circle> <circle cx="238.80881385728034" cy="488.1138409739333" r="12.862533098631266" fill="undefined"></circle> <circle cx="494.80881385728037" cy="488.1138409739333" r="12.862533098631266" fill="undefined"></circle> <circle cx="-17.19118614271966" cy="744.1138409739333" r="12.862533098631266" fill="undefined"></circle> <circle cx="238.80881385728034" cy="744.1138409739333" r="12.862533098631266" fill="undefined"></circle> <circle cx="494.80881385728037" cy="744.1138409739333" r="12.862533098631266" fill="undefined"></circle> <circle cx="-53.64555513502577" cy="-4.962789767293884" r="34.94598912293948" fill="undefined"></circle> <circle cx="202.35444486497423" cy="-4.962789767293884" r="34.94598912293948" fill="undefined"></circle> <circle cx="458.3544448649742" cy="-4.962789767293884" r="34.94598912293948" fill="undefined"></circle> <circle cx="-53.64555513502577" cy="251.03721023270612" r="34.94598912293948" fill="undefined"></circle> <circle cx="202.35444486497423" cy="251.03721023270612" r="34.94598912293948" fill="undefined"></circle> <circle cx="458.3544448649742" cy="251.03721023270612" r="34.94598912293948" fill="undefined"></circle> <circle cx="-53.64555513502577" cy="507.0372102327061" r="34.94598912293948" fill="undefined"></circle> <circle cx="202.35444486497423" cy="507.0372102327061" r="34.94598912293948" fill="undefined"></circle> <circle cx="458.3544448649742" cy="507.0372102327061" r="34.94598912293948" fill="undefined"></circle> <circle cx="-53.64555513502577" cy="763.0372102327061" r="34.94598912293948" fill="undefined"></circle> <circle cx="202.35444486497423" cy="763.0372102327061" r="34.94598912293948" fill="undefined"></circle> <circle cx="458.3544448649742" cy="763.0372102327061" r="34.94598912293948" fill="undefined"></circle> <circle cx="-73.14643226752807" cy="86.24799848821564" r="6.536949834291836" fill="undefined"></circle> <circle cx="182.85356773247193" cy="86.24799848821564" r="6.536949834291836" fill="undefined"></circle> <circle cx="438.8535677324719" cy="86.24799848821564" r="6.536949834291836" fill="undefined"></circle> <circle cx="-73.14643226752807" cy="342.24799848821567" r="6.536949834291836" fill="undefined"></circle> <circle cx="182.85356773247193" cy="342.24799848821567" r="6.536949834291836" fill="undefined"></circle> <circle cx="438.8535677324719" cy="342.24799848821567" r="6.536949834291836" fill="undefined"></circle> <circle cx="-73.14643226752807" cy="598.2479984882157" r="6.536949834291836" fill="undefined"></circle> <circle cx="182.85356773247193" cy="598.2479984882157" r="6.536949834291836" fill="undefined"></circle> <circle cx="438.8535677324719" cy="598.2479984882157" r="6.536949834291836" fill="undefined"></circle> <circle cx="-179.8452746789306" cy="-16.276425465971897" r="23.338049743414338" fill="undefined"></circle> <circle cx="76.1547253210694" cy="-16.276425465971897" r="23.338049743414338" fill="undefined"></circle> <circle cx="332.1547253210694" cy="-16.276425465971897" r="23.338049743414338" fill="undefined"></circle> <circle cx="-179.8452746789306" cy="239.7235745340281" r="23.338049743414338" fill="undefined"></circle> <circle cx="76.1547253210694" cy="239.7235745340281" r="23.338049743414338" fill="undefined"></circle> <circle cx="332.1547253210694" cy="239.7235745340281" r="23.338049743414338" fill="undefined"></circle> <circle cx="-179.8452746789306" cy="495.7235745340281" r="23.338049743414338" fill="undefined"></circle> <circle cx="76.1547253210694" cy="495.7235745340281" r="23.338049743414338" fill="undefined"></circle> <circle cx="332.1547253210694" cy="495.7235745340281" r="23.338049743414338" fill="undefined"></circle> <circle cx="-179.8452746789306" cy="751.7235745340281" r="23.338049743414338" fill="undefined"></circle> <circle cx="76.1547253210694" cy="751.7235745340281" r="23.338049743414338" fill="undefined"></circle> <circle cx="332.1547253210694" cy="751.7235745340281" r="23.338049743414338" fill="undefined"></circle> <circle cx="-50.553455145453626" cy="159.71313662079126" r="12.766217642024426" fill="undefined"></circle> <circle cx="205.44654485454637" cy="159.71313662079126" r="12.766217642024426" fill="undefined"></circle> <circle cx="461.44654485454635" cy="159.71313662079126" r="12.766217642024426" fill="undefined"></circle> <circle cx="-50.553455145453626" cy="415.71313662079126" r="12.766217642024426" fill="undefined"></circle> <circle cx="205.44654485454637" cy="415.71313662079126" r="12.766217642024426" fill="undefined"></circle> <circle cx="461.44654485454635" cy="415.71313662079126" r="12.766217642024426" fill="undefined"></circle> <circle cx="-50.553455145453626" cy="671.7131366207913" r="12.766217642024426" fill="undefined"></circle> <circle cx="205.44654485454637" cy="671.7131366207913" r="12.766217642024426" fill="undefined"></circle> <circle cx="461.44654485454635" cy="671.7131366207913" r="12.766217642024426" fill="undefined"></circle> 
  <animateTransform attributeName="transform" type="translate" dur="1.1111111111111112s" repeatCount="indefinite" keyTimes="0;1" values="0 0;0 -256"></animateTransform>
</g></g></g><filter id="f">
<feDiffuseLighting lighting-color="#fafbfd" surfaceScale="0.5" result="light">
  <feDistantLight azimuth="45" elevation="60"></feDistantLight>
</feDiffuseLighting>
</filter></g>
</g>
<rect x="0" y="0" width="1084" height="322" fill="url(#pid-img-0.9351122782644762)"></rect>
</svg>